<?xml version="1.0" standalone="no"?>
<!DOCTYPE svg PUBLIC "-//W3C//DTD SVG 20010904//EN"
 "http://www.w3.org/TR/2001/REC-SVG-20010904/DTD/svg10.dtd">
<svg version="1.0" xmlns="http://www.w3.org/2000/svg"
 width="592.000000pt" height="147.000000pt" viewBox="0 0 592.000000 147.000000"
 preserveAspectRatio="xMidYMid meet">

<g transform="translate(0.000000,147.000000) scale(0.100000,-0.100000)"
fill="#FFFFFF" stroke="none">
<path d="M695 1386 c-222 -71 -450 -274 -515 -459 -24 -67 -25 -96 -6 -142 33
-77 146 -57 288 51 32 24 58 39 58 34 0 -6 -79 -89 -175 -185 -107 -106 -175
-182 -175 -194 0 -24 49 -37 78 -22 11 6 58 50 103 99 46 49 141 133 212 187
70 54 127 102 127 106 0 28 -70 10 -99 -25 -8 -9 -18 -16 -23 -16 -12 0 30 58
137 187 47 56 85 106 85 111 0 5 -10 12 -22 16 -21 5 -19 8 24 35 26 16 65 48
87 70 34 34 41 48 41 81 0 63 -24 80 -112 79 -40 0 -91 -6 -113 -13z m152 -63
c6 -18 -65 -81 -125 -110 -43 -21 -58 -24 -72 -15 -14 9 -21 7 -34 -7 -34 -38
-14 -68 49 -73 l40 -3 -94 -80 c-118 -101 -249 -190 -301 -206 -35 -11 -43
-10 -57 3 -78 78 237 412 461 490 56 19 127 20 133 1z"/>
<path d="M2542 1237 c-12 -13 -22 -35 -22 -50 0 -22 5 -27 24 -27 30 0 76 46
76 76 0 20 -5 24 -28 24 -17 0 -37 -10 -50 -23z"/>
<path d="M1435 1091 c-115 -28 -267 -162 -291 -255 -7 -29 -52 -66 -79 -66
-29 0 -12 71 44 184 44 88 49 103 36 115 -11 12 -19 12 -40 3 -18 -8 -32 -9
-45 -2 -73 39 -238 -60 -301 -181 -32 -63 -33 -144 0 -170 44 -36 103 -18 179
54 l42 41 0 -35 c0 -52 24 -79 68 -79 21 0 48 7 61 17 19 13 28 14 42 5 42
-26 106 -6 166 51 18 17 35 28 37 26 10 -10 -72 -118 -140 -185 -83 -82 -106
-130 -80 -169 30 -45 57 -33 122 53 82 109 114 142 203 206 84 60 91 63 91 42
0 -20 39 -46 68 -46 34 0 81 27 130 73 l42 41 0 -37 c0 -55 30 -81 83 -73 23
4 52 7 65 7 15 1 45 28 96 88 72 84 198 211 210 211 4 0 2 -9 -4 -20 -16 -29
-9 -74 12 -78 21 -4 50 28 85 94 22 43 26 57 17 71 -14 23 -48 28 -87 12 -35
-14 -43 -20 -88 -61 -34 -32 -35 -30 -9 21 21 42 18 51 -16 51 -35 0 -59 -28
-135 -160 -72 -126 -109 -170 -143 -170 -31 0 -14 70 45 187 44 86 50 106 38
114 -8 5 -23 7 -34 3 -23 -7 -37 -7 -87 2 -76 13 -216 -86 -270 -190 -16 -30
-47 -62 -98 -100 -40 -30 -75 -54 -77 -52 -4 4 81 145 151 249 66 101 71 122
24 113 -48 -10 -61 -10 -83 -4 -11 3 -33 2 -50 -1z m36 -69 c-24 -45 -231
-242 -254 -242 -13 0 -7 31 14 72 30 58 104 127 174 160 70 33 79 34 66 10z
m-421 -8 c0 -23 -128 -163 -194 -212 -34 -26 -46 -28 -46 -7 0 51 91 164 159
200 44 23 81 32 81 19z m769 -59 c-57 -73 -165 -175 -186 -175 -23 0 -14 35
25 96 52 80 133 141 190 143 20 1 17 -5 -29 -64z"/>
<path d="M2423 1068 c-50 -43 -53 -48 -40 -68 8 -13 6 -24 -10 -46 -41 -58
-83 -150 -83 -180 0 -35 21 -59 68 -75 25 -9 39 -7 76 9 38 18 47 18 57 6 24
-29 75 -17 134 31 30 25 55 42 55 39 0 -15 -61 -112 -85 -134 -15 -14 -42 -46
-62 -72 -57 -79 -64 -142 -17 -154 33 -8 64 14 106 78 38 56 125 149 197 211
l45 37 27 -26 c39 -37 85 -28 161 31 55 43 58 44 58 21 0 -13 9 -35 21 -50 16
-20 29 -26 59 -26 21 0 42 5 46 11 3 6 17 8 29 5 20 -5 32 5 76 62 70 89 232
248 237 233 2 -6 -7 -26 -21 -44 -37 -49 -76 -131 -83 -175 -5 -35 -3 -44 19
-66 45 -45 108 -31 188 41 28 26 39 43 39 64 0 16 -4 29 -10 29 -5 0 -32 -20
-60 -45 -36 -32 -59 -45 -80 -45 -19 0 -30 5 -30 14 0 19 48 110 91 171 50 71
65 111 49 130 -27 33 -102 10 -170 -51 l-42 -39 21 40 c27 51 27 65 -2 65 -36
0 -63 -25 -112 -108 -25 -42 -50 -84 -55 -92 -5 -8 -19 -31 -30 -52 -23 -43
-67 -80 -89 -76 -31 7 0 116 61 221 15 26 28 54 28 62 0 20 -35 28 -59 13 -16
-10 -23 -10 -33 0 -20 20 -82 14 -133 -13 -70 -38 -151 -119 -176 -179 -15
-37 -41 -68 -89 -111 -38 -32 -74 -61 -80 -63 -13 -5 55 125 127 243 69 113
70 115 49 131 -27 19 -46 5 -99 -68 -24 -35 -81 -98 -126 -140 -112 -108 -126
-105 -65 16 20 39 39 76 44 81 4 6 14 29 23 52 14 36 14 43 2 53 -18 15 -43 6
-52 -17 -20 -53 -138 -236 -167 -258 -34 -26 -70 -33 -81 -15 -4 6 28 71 70
145 54 96 75 141 70 155 -10 30 -49 25 -92 -12z m735 -95 c-18 -27 -64 -78
-103 -115 -98 -96 -137 -105 -97 -22 42 87 156 184 215 184 16 0 13 -7 -15
-47z"/>
<path d="M4091 403 c-8 -16 -61 -253 -61 -274 0 -5 13 -9 29 -9 28 0 29 2 47
90 19 96 24 97 44 12 17 -72 39 -68 97 16 24 35 43 60 43 55 -1 -4 -7 -37 -15
-73 -21 -94 -20 -100 13 -100 28 0 28 1 55 123 38 170 38 171 5 173 -29 3 -31
0 -104 -98 -19 -27 -39 -48 -43 -48 -4 0 -16 30 -26 68 -10 37 -23 70 -29 74
-19 13 -45 9 -55 -9z"/>
<path d="M4519 411 c-100 -32 -157 -148 -114 -231 34 -65 112 -80 180 -34 50
34 71 61 85 110 29 103 -52 186 -151 155z m89 -84 c18 -37 0 -98 -39 -131 -38
-33 -69 -33 -99 -1 -19 20 -22 31 -17 66 13 94 119 139 155 66z"/>
<path d="M4702 408 c-24 -24 -13 -38 28 -38 48 0 49 -4 20 -130 -26 -114 -26
-120 8 -120 27 0 28 2 52 113 13 61 28 118 33 125 5 6 26 12 47 12 29 0 39 5
43 19 3 11 2 22 -1 25 -11 12 -218 6 -230 -6z"/>
<path d="M4976 412 c-2 -4 -16 -63 -30 -132 -15 -69 -29 -133 -32 -142 -4 -14
1 -18 25 -18 26 0 31 5 40 38 6 20 11 47 11 59 0 25 26 35 75 29 17 -2 35 -4
41 -5 9 -1 9 -12 3 -38 -16 -70 -12 -85 18 -81 25 3 29 9 40 58 11 44 39 181
46 224 1 5 -10 11 -25 12 -23 2 -29 -2 -34 -24 -21 -95 -14 -87 -83 -90 l-63
-3 7 28 c16 55 12 86 -12 89 -12 2 -24 0 -27 -4z"/>
<path d="M5283 413 c-7 -3 -13 -13 -13 -22 0 -10 -11 -68 -25 -129 -14 -61
-25 -118 -25 -126 0 -13 16 -16 100 -16 l100 0 0 25 c0 24 -2 25 -65 25 -59 0
-65 2 -65 21 0 45 17 59 74 59 40 0 55 4 60 16 10 27 -3 34 -59 34 -53 0 -54
1 -45 24 5 13 6 26 4 29 -9 9 54 19 98 15 40 -2 43 -1 46 23 l3 27 -88 0 c-48
0 -94 -2 -100 -5z"/>
<path d="M5526 411 c-5 -7 -66 -274 -66 -286 0 -3 13 -5 29 -5 27 0 30 4 41
50 9 38 17 50 31 50 21 0 44 -31 54 -73 6 -23 12 -27 42 -27 26 0 34 4 30 14
-3 8 -11 32 -17 53 -12 38 -11 41 19 70 25 26 31 40 31 76 0 65 -23 81 -116
84 -40 1 -76 -2 -78 -6z m125 -51 c15 0 10 -52 -8 -72 -19 -22 -83 -25 -83 -4
0 7 3 27 6 44 6 30 30 44 62 36 8 -2 18 -4 23 -4z"/>
<path d="M3159 308 c-1 -24 -1 -60 0 -80 2 -32 -1 -40 -23 -49 -31 -15 -53 -6
-68 25 -9 20 -8 30 7 52 14 22 22 25 46 20 19 -3 28 -2 24 4 -10 16 -62 12
-79 -6 -16 -16 -20 -33 -16 -69 4 -36 20 -45 76 -44 l54 2 0 88 c0 89 -19 139
-21 57z"/>
<path d="M3632 338 c-7 -7 -12 -20 -12 -29 0 -10 -6 -20 -12 -22 -10 -4 -10
-6 0 -6 8 -1 13 -22 14 -63 l1 -63 6 59 c5 47 10 61 26 67 16 6 17 8 3 8 -9 1
-19 5 -23 10 -7 12 24 43 36 36 5 -4 9 -1 9 4 0 15 -33 14 -48 -1z"/>
<path d="M1789 313 c-2 -49 2 -148 7 -152 2 -2 4 14 4 37 l0 42 46 0 c27 0 43
4 39 10 -3 6 -24 10 -46 10 -39 0 -40 1 -37 33 3 30 5 32 53 38 l50 6 -57 1
c-57 2 -58 1 -59 -25z"/>
<path d="M2541 340 c-7 -13 -7 -147 0 -165 6 -15 8 -9 8 23 l1 42 55 0 55 0 0
-40 c0 -22 5 -40 10 -40 6 0 10 37 10 91 0 57 -4 88 -10 84 -5 -3 -10 -22 -10
-41 l0 -34 -54 0 -55 0 -4 43 c-2 23 -5 40 -6 37z"/>
<path d="M1939 268 c-2 -12 -1 -43 2 -68 l6 -45 1 43 c2 32 8 49 28 67 27 25
23 33 -6 15 -9 -6 -17 -5 -21 1 -3 6 -8 0 -10 -13z"/>
<path d="M2045 276 c-22 -16 -26 -76 -6 -100 21 -25 86 -21 105 6 34 48 7 108
-48 108 -18 0 -41 -6 -51 -14z m77 -13 c22 -20 23 -56 2 -77 -48 -48 -113 25
-67 76 20 22 41 23 65 1z"/>
<path d="M2200 223 c0 -37 4 -63 10 -63 6 0 10 15 9 33 -4 61 19 95 56 81 11
-5 15 -21 15 -60 0 -30 5 -54 10 -54 6 0 10 20 10 44 0 45 18 76 45 76 20 0
29 -20 30 -67 0 -24 4 -43 10 -43 9 0 8 97 -1 112 -8 13 -59 9 -72 -4 -10 -10
-14 -10 -20 -1 -5 8 -27 12 -55 11 l-47 -2 0 -63z"/>
<path d="M2740 280 c-10 -6 -3 -7 24 -3 27 4 41 2 47 -8 16 -25 10 -40 -13
-35 -41 7 -68 -10 -68 -44 l0 -31 58 3 58 2 -6 51 c-3 27 -9 56 -13 63 -10 14
-65 16 -87 2z m80 -79 c0 -28 -60 -45 -75 -21 -14 22 4 40 40 40 28 0 35 -4
35 -19z"/>
<path d="M2890 223 c0 -36 4 -63 10 -63 6 0 10 23 10 50 0 44 3 52 25 62 34
15 45 3 55 -63 l8 -54 -1 65 -2 65 -52 0 -53 0 0 -62z"/>
<path d="M3229 274 c-18 -22 -2 -44 41 -58 51 -16 46 -41 -7 -40 -23 0 -40 -3
-37 -8 3 -4 22 -8 43 -8 72 0 79 52 9 70 -29 8 -38 16 -36 28 3 13 13 17 41
16 20 -1 34 3 31 7 -9 15 -71 10 -85 -7z"/>
<path d="M3457 273 c-42 -48 -15 -113 48 -113 57 0 88 76 47 113 -24 22 -75
22 -95 0z m77 -9 c32 -32 10 -94 -34 -94 -25 0 -52 42 -44 66 17 46 49 58 78
28z"/>
<path d="M3785 280 c-4 -6 6 -7 26 -3 25 5 35 2 46 -12 20 -29 16 -38 -16 -32
-36 8 -73 -17 -69 -46 3 -19 10 -22 59 -23 l57 -1 -5 51 c-2 28 -9 56 -15 63
-12 15 -74 17 -83 3z m85 -74 c0 -19 -22 -36 -47 -36 -30 0 -42 29 -20 45 20
14 67 8 67 -9z"/>
</g>
</svg>
